<?xml version="1.0" encoding="iso-8859-1"?>
<!-- Generator: Adobe Illustrator 19.0.0, SVG Export Plug-In . SVG Version: 6.00 Build 0)  -->
<svg version="1.1" id="Layer_1" xmlns="http://www.w3.org/2000/svg" xmlns:xlink="http://www.w3.org/1999/xlink" x="0px" y="0px"
	 viewBox="0 0 512 512" style="enable-background:new 0 0 512 512;" xml:space="preserve">
<g>
	<g>
		<path d="M499.2,456.192h-12.8v-230.4h-128v-80.879l17.604,14.08l16-20.002L256,30.208L120.004,138.991l16,20.002l17.596-14.08
			v80.879h-128v230.4H12.8c-7.074,0-12.8,5.726-12.8,12.8c0,7.074,5.726,12.8,12.8,12.8h486.4c7.074,0,12.8-5.726,12.8-12.8
			C512,461.918,506.274,456.192,499.2,456.192z M153.6,456.192H51.2v-128h102.4V456.192z M153.6,302.592H51.2v-51.2h102.4V302.592z
			 M256,62.985l75.503,60.416H180.497L256,62.985z M268.8,456.192h-25.6v-51.2h25.6V456.192z M332.8,456.192h-38.4v-76.8h-76.8v76.8
			h-38.4v-307.2h153.6V456.192z M460.8,456.192H358.4v-128h102.4V456.192z M460.8,302.592H358.4v-51.2h102.4V302.592z"/>
	</g>
</g>
<g>
	<g>
		<path d="M217.6,276.992v76.8h76.8v-76.8H217.6z M268.8,328.192h-25.6v-25.6h25.6V328.192z"/>
	</g>
</g>
<g>
	<g>
		<path d="M217.6,174.592v76.8h76.8v-76.8H217.6z M268.8,225.792h-25.6v-25.6h25.6V225.792z"/>
	</g>
</g>
<g>
</g>
<g>
</g>
<g>
</g>
<g>
</g>
<g>
</g>
<g>
</g>
<g>
</g>
<g>
</g>
<g>
</g>
<g>
</g>
<g>
</g>
<g>
</g>
<g>
</g>
<g>
</g>
<g>
</g>
</svg>
